<svg xmlns="http://www.w3.org/2000/svg" version="1.1" xmlns:xlink="http://www.w3.org/1999/xlink" xmlns:svgjs="http://svgjs.dev/svgjs" width="2000" height="2250" viewBox="0 0 2000 2250"><g transform="matrix(1,0,0,1,0,0)"><svg viewBox="0 0 320 360" data-background-color="#ffffff" preserveAspectRatio="xMidYMid meet" height="2250" width="2000" xmlns="http://www.w3.org/2000/svg" xmlns:xlink="http://www.w3.org/1999/xlink"><g id="tight-bounds" transform="matrix(1,0,0,1,0,0)"><svg viewBox="0 0 320 360" height="360" width="320"><g><svg></svg></g><g><svg viewBox="0 0 320 360" height="360" width="320"><g><path d="M297.491 100.645c-12.426-21.51-112.674-79.355-137.491-79.355-24.817 0-125.028 57.845-137.491 79.355-11.591 20.02-11.591 138.726 0 158.746 12.463 21.474 112.674 79.319 137.491 79.319 24.817 0 125.064-57.845 137.491-79.355 11.591-20.02 11.591-138.69 0-158.71zM309.481 93.705c-14.461-24.998-119.469-86.295-149.481-86.295-30.012 0-135.02 61.297-149.481 86.295-14.025 24.199-14.025 148.391 0 172.59 14.461 24.998 119.469 86.295 149.481 86.295 30.012 0 135.02-61.297 149.481-86.259 14.025-24.235 14.025-148.427 0-172.626zM300.906 261.353c-12.753 22.055-115.472 81.317-140.906 81.318-25.434 0-128.153-59.298-140.906-81.354-11.881-20.529-11.881-142.178 0-162.707 12.753-22.019 115.472-81.281 140.906-81.281 25.434 0 128.153 59.298 140.906 81.318 11.881 20.529 11.881 142.178 0 162.706z" fill="#773fcc" fill-rule="nonzero" stroke="none" stroke-width="1" stroke-linecap="butt" stroke-linejoin="miter" stroke-miterlimit="10" stroke-dasharray="" stroke-dashoffset="0" font-family="none" font-weight="none" font-size="none" text-anchor="none" style="mix-blend-mode: normal" data-fill-palette-color="tertiary"></path></g><g transform="matrix(1,0,0,1,74.47709393799168,90)"><svg viewBox="0 0 171.04581212401663 180" height="180" width="171.04581212401663"><g><svg viewBox="0 0 171.04581212401663 180" height="180" width="171.04581212401663"><g><svg viewBox="0 0 171.04581212401663 180" height="180" width="171.04581212401663"><g><svg viewBox="0 0 171.04581212401663 180" height="180" width="171.04581212401663"><g id="textblocktransform"><svg viewBox="0 0 171.04581212401663 180" height="180" width="171.04581212401663" id="textblock"><g><svg viewBox="0 0 171.04581212401663 180" height="180" width="171.04581212401663"><g transform="matrix(1,0,0,1,0,0)"><svg width="171.04581212401663" viewBox="-0.14000000000000012 -38.94 41.1 43.21" height="180" data-palette-color="#ffffff"><path d="M8.62 1.27L4.17 1.27Q3.91 1.22 3.78 1 3.66 0.78 3.66 0.51L3.66 0.51Q3.66 0.29 3.76 0.12L3.76 0.12 6.76-5.62Q6.79-5.71 6.85-6.37 6.91-7.03 6.98-8.02 7.06-9.01 7.14-10.23 7.23-11.45 7.32-12.65 7.42-13.84 7.51-14.93 7.59-16.02 7.67-16.75L7.67-16.75Q7.69-17.04 7.74-17.64 7.79-18.24 7.84-19.02 7.89-19.8 7.96-20.7 8.03-21.61 8.11-22.51L8.11-22.51 8.45-27.61Q7.79-27.47 7.08-27.31 6.37-27.15 5.7-27.03 5.03-26.9 4.43-26.82 3.83-26.73 3.39-26.73L3.39-26.73Q3.13-26.73 2.99-26.98 2.86-27.22 2.86-27.49L2.86-27.49Q2.86-27.81 3-27.95L3-27.95 9.2-33.74Q9.96-34.42 10.71-34.85 11.45-35.28 12.5-35.52 13.55-35.77 15.08-35.85 16.6-35.94 18.95-35.94L18.95-35.94Q22.95-35.94 26.05-35.11 29.15-34.28 31.3-32.74L31.3-32.74Q32.89-31.64 34.13-30.44 35.38-29.25 36.23-27.8 37.08-26.34 37.52-24.6 37.96-22.85 37.96-20.65L37.96-20.65Q37.96-16.48 36.72-13.23 35.47-9.99 33.33-7.56 31.18-5.13 28.31-3.44 25.44-1.76 22.18-0.71 18.92 0.34 15.44 0.81 11.96 1.27 8.62 1.27L8.62 1.27ZM18.36-28.13L18.36-28.13 18.07-25.17Q17.92-23.63 17.76-21.89 17.6-20.14 17.46-18.35 17.31-16.55 17.16-14.81 17.02-13.06 16.89-11.55 16.77-10.03 16.67-8.84 16.58-7.64 16.5-6.93L16.5-6.93 16.43-6.2Q19.38-6.2 21.42-7.15 23.46-8.11 24.73-9.78 26-11.45 26.57-13.7 27.15-15.94 27.15-18.53L27.15-18.53Q27.15-20.39 26.64-22.11 26.12-23.83 25.15-25.39L25.15-25.39Q24.17-26.95 22.75-27.73 21.34-28.52 19.56-28.52L19.56-28.52Q19.26-28.52 18.92-28.38 18.58-28.25 18.36-28.13Z" opacity="1" transform="matrix(1,0,0,1,0,0)" fill="#ffffff" class="wordmark-text-0" data-fill-palette-color="quaternary" id="text-0"></path></svg></g></svg></g></svg></g></svg></g></svg></g></svg></g></svg></g></svg></g><defs></defs></svg><rect width="320" height="360" fill="none" stroke="none" visibility="hidden"></rect></g></svg></g></svg>