<!DOCTYPE svg PUBLIC "-//W3C//DTD SVG 1.1//EN" "http://www.w3.org/Graphics/SVG/1.1/DTD/svg11.dtd">
<!-- Uploaded to: SVG Repo, www.svgrepo.com, Transformed by: SVG Repo Mixer Tools -->
<svg fill="#000000" width="800px" height="800px" viewBox="-28 -28 456.00 456.00" id="Location" version="1.1" xml:space="preserve" xmlns="http://www.w3.org/2000/svg" xmlns:xlink="http://www.w3.org/1999/xlink" stroke="#000000" stroke-width="9.2">
<g id="SVGRepo_bgCarrier" stroke-width="0" transform="translate(0,0), scale(1)"/>
<g id="SVGRepo_tracerCarrier" stroke-linecap="round" stroke-linejoin="round" stroke="#3c3939" stroke-width="1.6"/>
<g id="SVGRepo_iconCarrier"> <g id="XMLID_6_"> <polygon id="XMLID_7_" points="186.7,26.7 213.3,26.7 240,26.7 266.7,26.7 266.7,0 240,0 213.3,0 186.7,0 160,0 133.3,0 133.3,26.7 160,26.7 "/> <rect height="26.7" id="XMLID_63_" width="26.7" x="106.7" y="26.7"/> <rect height="26.7" id="XMLID_64_" width="26.7" x="266.7" y="26.7"/> <rect height="26.7" id="XMLID_65_" width="26.7" x="80" y="53.3"/> <rect height="26.7" id="XMLID_66_" width="26.7" x="293.3" y="53.3"/> <polygon id="XMLID_67_" points="213.3,106.7 240,106.7 240,80 213.3,80 186.7,80 160,80 160,106.7 186.7,106.7 "/> <polygon id="XMLID_68_" points="320,80 320,106.7 320,133.3 320,160 320,186.7 346.7,186.7 346.7,160 346.7,133.3 346.7,106.7 346.7,80 "/> <polygon id="XMLID_69_" points="240,133.3 240,160 240,186.7 266.7,186.7 266.7,160 266.7,133.3 266.7,106.7 240,106.7 "/> <polygon id="XMLID_70_" points="80,133.3 80,106.7 80,80 53.3,80 53.3,106.7 53.3,133.3 53.3,160 53.3,186.7 80,186.7 80,160 "/> <polygon id="XMLID_71_" points="160,133.3 160,106.7 133.3,106.7 133.3,133.3 133.3,160 133.3,186.7 160,186.7 160,160 "/> <polygon id="XMLID_72_" points="106.7,186.7 80,186.7 80,213.3 80,240 106.7,240 106.7,213.3 "/> <polygon id="XMLID_73_" points="186.7,186.7 160,186.7 160,213.3 186.7,213.3 213.3,213.3 240,213.3 240,186.7 213.3,186.7 "/> <polygon id="XMLID_74_" points="293.3,213.3 293.3,240 320,240 320,213.3 320,186.7 293.3,186.7 "/> <polygon id="XMLID_75_" points="133.3,240 106.7,240 106.7,266.7 106.7,293.3 133.3,293.3 133.3,266.7 "/> <polygon id="XMLID_76_" points="266.7,266.7 266.7,293.3 293.3,293.3 293.3,266.7 293.3,240 266.7,240 "/> <rect height="26.7" id="XMLID_77_" width="26.7" x="133.3" y="293.3"/> <rect height="26.7" id="XMLID_78_" width="26.7" x="240" y="293.3"/> <polygon id="XMLID_79_" points="186.7,320 160,320 160,346.7 160,373.3 186.7,373.3 186.7,346.7 "/> <polygon id="XMLID_80_" points="213.3,346.7 213.3,373.3 240,373.3 240,346.7 240,320 213.3,320 "/> <rect height="26.7" id="XMLID_81_" width="26.7" x="186.7" y="373.3"/> </g> </g>
</svg>